<?xml version="1.0" encoding="utf-8"?><!-- Uploaded to: SVG Repo, www.svgrepo.com, Generator: SVG Repo Mixer Tools -->
<svg fill="#000000" width="800px" height="800px" viewBox="0 0 24 24" id="left-right-arrow" data-name="Flat Color" xmlns="http://www.w3.org/2000/svg" class="icon flat-color"><path id="secondary" d="M20,7H6.41l1.3-1.29A1,1,0,0,0,6.29,4.29l-3,3a1,1,0,0,0,0,1.42l3,3a1,1,0,0,0,1.42,0,1,1,0,0,0,0-1.42L6.41,9H20a1,1,0,0,0,0-2Z" style="fill: rgb(44, 169, 188);"></path><path id="primary" d="M20.71,15.29l-3-3a1,1,0,0,0-1.42,1.42L17.59,15H4a1,1,0,0,0,0,2H17.59l-1.3,1.29a1,1,0,0,0,0,1.42,1,1,0,0,0,1.42,0l3-3A1,1,0,0,0,20.71,15.29Z" style="fill: rgb(0, 0, 0);"></path></svg>